# xmcd
#
# Track frame offsets: 
#        150
#        9909
#        20650
#        32899
#        46238
#        53846
#        63043
#        74326
#        83856
#        95167
#        104137
#
# Disc length: 1516 seconds
#
# Revision: 0
# Processed by: cddbd v1.4PL0 Copyright (c) Steve Scherf et al.
# Submitted via: ExactAudioCopy v0.90b4
#
DISCID=9005ea0b
DTITLE=The Strangers - Instrumental Sounds of the Strangers
DYEAR=1969
DGENRE=Country
TTITLE0=Mama Tried
TTITLE1=Don't Tell Me
TTITLE2=Leaving Phoenix
TTITLE3=Waltz of Enchantment
TTITLE4=Tennessee Flat Top Box
TTITLE5=Poppin Corn
TTITLE6=Hammin it Up
TTITLE7=Whooper Snooper
TTITLE8=Terri
TTITLE9=A Hop and A Skip
TTITLE10=Somebody Stole My Gal
EXTD=Merle Haggard's Band
EXTT0=
EXTT1=
EXTT2=
EXTT3=
EXTT4=
EXTT5=
EXTT6=
EXTT7=
EXTT8=
EXTT9=
EXTT10=
PLAYORDER=
